<?xml version="1.0" standalone="no"?><!DOCTYPE svg PUBLIC "-//W3C//DTD SVG 1.1//EN" "http://www.w3.org/Graphics/SVG/1.1/DTD/svg11.dtd"><svg t="1773718860836" class="icon" viewBox="0 0 1024 1024" version="1.1" xmlns="http://www.w3.org/2000/svg" p-id="3265" xmlns:xlink="http://www.w3.org/1999/xlink" width="200" height="200"><path d="M0 0m224 0l576 0q224 0 224 224l0 576q0 224-224 224l-576 0q-224 0-224-224l0-576q0-224 224-224Z" fill="#007FFF" p-id="3266"></path><path d="M362.14 288.08a32 32 0 0 1 23.888 10.708L508.332 436h155.648a32 32 0 0 1 31.984 31l0.016 1a32 32 0 0 1-32 32h-169.992a32 32 0 0 1-23.888-10.708L347.792 352.084H195.98a32 32 0 0 1-31.984-31.004l-0.016-1a32 32 0 0 1 32-32h166.16zM499.348 566.588a32 32 0 1 1 45.256 45.256l-141.356 141.352a32 32 0 0 1-22.628 9.372h-184.64a32 32 0 1 1 0-64h171.384l131.984-131.98z" fill="#FFFFFF" p-id="3267"></path><path d="M819.48 443.912L712.34 342.4a28.528 28.528 0 0 0-30.288-6.076c-10.452 4.072-17.188 13.848-17.028 24.576v203.356c0.164 10.588 6.948 20.06 17.24 24.084 10.288 4.052 22.132 1.864 30.076-5.56l107.148-101.516a25.528 25.528 0 0 0 0-37.352z" fill="#FFFFFF" p-id="3268"></path></svg>